<svg width="26" height="22" viewBox="0 0 26 22" fill="none" xmlns="http://www.w3.org/2000/svg">
<path id="Vector" d="M17.452 12.8326C16.4468 12.8326 15.632 13.9624 15.632 15.3512C15.632 16.7428 16.4468 17.8726 17.452 17.8726C18.4572 17.8726 19.272 16.7428 19.272 15.3512C19.2706 13.9624 18.4572 12.8326 17.452 12.8326ZM23.7884 6.27639C23.997 5.76539 24.0054 2.86179 22.8994 0.0799866C22.8994 0.0799866 20.364 0.358587 16.528 2.99199C15.723 2.76799 14.3608 2.65879 13.0014 2.65879C11.6392 2.65879 10.2784 2.76799 9.4734 2.99199C5.636 0.358587 3.1006 0.0799866 3.1006 0.0799866C1.996 2.86179 2.0072 5.76539 2.213 6.27639C0.913803 7.68759 0.120003 9.38299 0.120003 11.6958C0.120003 21.7562 8.4682 21.9172 10.5738 21.9172L13.0014 21.92L15.4262 21.9172C17.5346 21.9172 25.88 21.7562 25.88 11.6958C25.88 9.38299 25.0876 7.68759 23.7884 6.27639ZM13.0392 20.681H12.9608C7.6814 20.681 3.5682 20.0524 3.5682 14.92C3.5682 13.6894 4.0022 12.5498 5.034 11.6034C6.7518 10.0256 9.661 10.86 12.9608 10.86H13.0392C16.339 10.86 19.2496 10.0256 20.9688 11.6034C21.9978 12.5498 22.4318 13.6894 22.4318 14.92C22.4318 20.0524 18.32 20.681 13.0392 20.681ZM8.5494 12.8326C7.5442 12.8326 6.7294 13.9624 6.7294 15.3512C6.7294 16.7428 7.5442 17.8726 8.5494 17.8726C9.556 17.8726 10.3708 16.7428 10.3708 15.3512C10.3708 13.9624 9.556 12.8326 8.5494 12.8326Z" fill="#07C0FA"/>
</svg>
