<svg width="28" height="28" viewBox="0 0 28 28" fill="none" xmlns="http://www.w3.org/2000/svg">
<path d="M23.8563 23.8571H19.7076V17.3599C19.7076 15.8106 19.6799 13.8161 17.5499 13.8161C15.389 13.8161 15.0584 15.5042 15.0584 17.2471V23.8566H10.9098V10.4958H14.8925V12.3217H14.9483C15.3468 11.6402 15.9228 11.0796 16.6148 10.6995C17.3068 10.3194 18.0889 10.1342 18.8779 10.1634C23.0828 10.1634 23.8581 12.9293 23.8581 16.5275L23.8563 23.8571ZM6.22856 8.6696C4.89889 8.66982 3.82078 7.59204 3.82056 6.26237C3.82034 4.93269 4.89802 3.85458 6.22769 3.85437C7.55736 3.85404 8.63547 4.93182 8.63569 6.26149C8.6358 6.90003 8.38227 7.51246 7.93085 7.96406C7.47942 8.41567 6.8671 8.66945 6.22856 8.6696ZM8.30297 23.8572H4.14989V10.4958H8.30286V23.8571L8.30297 23.8572ZM25.9246 0.00141225H2.0652C0.937547 -0.0112752 0.0127818 0.892053 -0.000999451 2.01971V25.9786C0.0123443 27.1068 0.937 28.011 2.06509 27.9992H25.9246C27.0551 28.0132 27.9834 27.109 27.999 25.9786V2.01785C27.9829 0.888006 27.0545 -0.0152127 25.9246 -0.000447122" fill="#0080FF"/>
</svg>
