<svg width="36" height="36" viewBox="0 0 36 36" fill="currentColor" xmlns="http://www.w3.org/2000/svg" id="doubledown">
<path d="M35.2645 16.298C35.704 16.7376 35.9509 17.3337 35.9509 17.9553C35.9509 18.5768 35.704 19.1729 35.2645 19.6125L19.6395 35.2375C19.1999 35.677 18.6038 35.9239 17.9822 35.9239C17.3607 35.9239 16.7646 35.677 16.325 35.2375L0.700019 19.6125C0.479472 19.3955 0.304069 19.137 0.183926 18.8519C0.0637831 18.5668 0.00127924 18.2607 1.94317e-05 17.9513C-0.00124037 17.6419 0.0587686 17.3353 0.176586 17.0493C0.294402 16.7632 0.467695 16.5032 0.686468 16.2845C0.905241 16.0657 1.16516 15.8924 1.45125 15.7746C1.73733 15.6568 2.0439 15.5968 2.35329 15.598C2.66268 15.5993 2.96876 15.6618 3.25387 15.7819C3.53899 15.9021 3.79749 16.0775 4.01447 16.298L17.9822 30.2656L31.95 16.298C32.3896 15.8585 32.9857 15.6116 33.6073 15.6116C34.2288 15.6116 34.8249 15.8585 35.2645 16.298V16.298ZM16.325 19.6125C16.7646 20.052 17.3607 20.2989 17.9822 20.2989C18.6038 20.2989 19.1999 20.052 19.6395 19.6125L35.2645 3.98748C35.6981 3.54673 35.94 2.9525 35.9375 2.33421C35.935 1.71592 35.6882 1.12367 35.251 0.686468C34.8138 0.249268 34.2216 0.00253707 33.6033 1.94567e-05C32.985 -0.00249816 32.3908 0.239401 31.95 0.673027L17.9822 14.6406L4.01447 0.673027C3.57373 0.239401 2.97949 -0.00249816 2.3612 1.94567e-05C1.74291 0.00253707 1.15066 0.249268 0.713461 0.686468C0.27626 1.12367 0.0295298 1.71592 0.0270121 2.33421C0.0244945 2.9525 0.266394 3.54673 0.700019 3.98748L16.325 19.6125Z"/>
</svg>
