<svg width="30" height="22" viewBox="0 0 30 22" fill="none" xmlns="http://www.w3.org/2000/svg">
<path d="M29.3 18.65V3.35C29.3 1.939 28.161 0.800003 26.75 0.800003H2.933C1.522 0.800003 0.383003 1.939 0.383003 3.35V18.65C0.383003 20.061 1.522 21.2 2.933 21.2H26.75C28.161 21.2 29.3 20.061 29.3 18.65ZM27.073 3.163C27.634 3.724 27.328 4.302 27.022 4.591L20.12 10.915L26.75 17.817C26.954 18.055 27.09 18.429 26.852 18.684C26.631 18.956 26.121 18.939 25.9 18.769L18.471 12.428L14.833 15.743L11.212 12.428L3.783 18.769C3.562 18.939 3.052 18.956 2.831 18.684C2.593 18.429 2.729 18.055 2.933 17.817L9.563 10.915L2.661 4.591C2.355 4.302 2.049 3.724 2.61 3.163C3.171 2.602 3.749 2.874 4.225 3.282L14.833 11.85L25.458 3.282C25.934 2.874 26.512 2.602 27.073 3.163Z" fill="#F81000"/>
</svg>
