<svg width="28" height="28" viewBox="0 0 28 28" fill="none" xmlns="http://www.w3.org/2000/svg">
<g clip-path="url(#clip0)">
<path d="M14.0082 28.0089L19.1602 10.8091H8.85609L14.0081 28.0089H14.0082Z" fill="#E24329"/>
<path d="M14.0082 28.0088L8.8561 10.8089H1.63582L14.0082 28.0088Z" fill="#FC6D26"/>
<path d="M1.63581 10.8089L0.0702208 16.0359C0.00060962 16.2683 0.000600016 16.5186 0.0701933 16.751C0.139787 16.9834 0.27541 17.1859 0.457627 17.3295L14.0082 28.0089L1.6357 10.8091L1.63581 10.8089Z" fill="#FCA326"/>
<path d="M1.63582 10.8091H8.8561L5.75324 0.449668C5.59355 -0.0833999 4.89837 -0.0832813 4.73879 0.449668L1.63582 10.8091Z" fill="#E24329"/>
<path d="M14.0082 28.0088L19.1602 10.8089H26.3806L14.0081 28.0088H14.0082Z" fill="#FC6D26"/>
<path d="M26.3806 10.8089L27.9462 16.0359C28.0158 16.2683 28.0158 16.5186 27.9462 16.751C27.8766 16.9834 27.7409 17.1859 27.5587 17.3295L14.0082 28.0089L26.3806 10.8091V10.8089Z" fill="#FCA326"/>
<path d="M26.3806 10.8091H19.1602L22.2632 0.449668C22.4229 -0.0833999 23.118 -0.0832813 23.2776 0.449668L26.3806 10.8091Z" fill="#E24329"/>
</g>
<defs>
<clipPath id="clip0">
<rect width="28" height="28" fill="white"/>
</clipPath>
</defs>
</svg>
