<svg width="16" height="28" viewBox="0 0 16 28" fill="none" xmlns="http://www.w3.org/2000/svg">
<path d="M15.9616 27.8355C15.9397 27.9405 15.8251 28 15.6335 28H11.9734C11.7555 28 11.5639 27.9046 11.3994 27.713L5.35574 20.0244L3.66524 21.6239V27.5888C3.66524 27.8626 3.53312 27.9991 3.26012 27.9991H0.420743C0.147743 27.9991 0.0103683 27.8626 0.0103683 27.5888V0.410375C0.0103683 0.140875 0.147743 0 0.420743 0H3.26012C3.53312 0 3.66524 0.140875 3.66524 0.410375V17.1439L10.9024 9.82975C11.0984 9.63375 11.29 9.54275 11.4807 9.54275H15.2599C15.4279 9.54275 15.5372 9.61013 15.5924 9.75187C15.6475 9.926 15.6335 10.0485 15.5512 10.1168L7.90374 17.5184L15.8794 27.4435C15.9887 27.5669 16.0159 27.685 15.9607 27.8635L15.9616 27.8355Z" fill="#0080FF"/>
</svg>
